<svg xmlns="http://www.w3.org/2000/svg" viewBox="0 0 1024 1024" role="img" aria-labelledby="title desc">
  <title id="title">OpenMarketTerminal app icon</title>
  <desc id="desc">A dark rounded terminal tile with an open market grid, rising signal line, and command cursor.</desc>
  <defs>
    <linearGradient id="bg" x1="146" y1="84" x2="878" y2="940" gradientUnits="userSpaceOnUse">
      <stop offset="0" stop-color="#101820"/>
      <stop offset="0.52" stop-color="#13242A"/>
      <stop offset="1" stop-color="#071014"/>
    </linearGradient>
    <linearGradient id="signal" x1="228" y1="690" x2="820" y2="276" gradientUnits="userSpaceOnUse">
      <stop offset="0" stop-color="#36D399"/>
      <stop offset="0.54" stop-color="#51C7F0"/>
      <stop offset="1" stop-color="#F5B84B"/>
    </linearGradient>
    <filter id="soft-shadow" x="-20%" y="-20%" width="140%" height="140%">
      <feDropShadow dx="0" dy="28" stdDeviation="34" flood-color="#000000" flood-opacity="0.34"/>
    </filter>
  </defs>
  <rect x="86" y="86" width="852" height="852" rx="198" fill="url(#bg)" filter="url(#soft-shadow)"/>
  <path d="M312 214H204v596h108" fill="none" stroke="#E6F2F1" stroke-width="42" stroke-linecap="round" stroke-linejoin="round" opacity="0.94"/>
  <path d="M712 214h108v596H712" fill="none" stroke="#E6F2F1" stroke-width="42" stroke-linecap="round" stroke-linejoin="round" opacity="0.94"/>
  <path d="M278 654h472M278 528h472M278 402h472M374 300v430M512 300v430M650 300v430" fill="none" stroke="#CFE7E3" stroke-width="14" stroke-linecap="round" opacity="0.18"/>
  <path d="M266 674l116-108 94 58 126-168 76 42 126-166" fill="none" stroke="url(#signal)" stroke-width="48" stroke-linecap="round" stroke-linejoin="round"/>
  <circle cx="382" cy="566" r="28" fill="#36D399"/>
  <circle cx="602" cy="456" r="28" fill="#51C7F0"/>
  <circle cx="804" cy="332" r="28" fill="#F5B84B"/>
  <path d="M356 786h210" stroke="#E6F2F1" stroke-width="38" stroke-linecap="round"/>
  <path d="M620 786h92" stroke="#36D399" stroke-width="38" stroke-linecap="round"/>
</svg>

